<svg xmlns="http://www.w3.org/2000/svg" width="25" height="25" viewBox="0 0 25 25">
  <g id="组_1122" data-name="组 1122" transform="translate(-10 -621)">
    <circle id="矩形_-2" data-name="矩形 -2" cx="12.5" cy="12.5" r="12.5" transform="translate(10 621)" fill="#c1deff"/>
    <path id="路径_379" data-name="路径 379" d="M70.5,13.8a1.776,1.776,0,0,1-1.424-.557H67.838a2.9,2.9,0,0,0,5.2,0H71.8A1.522,1.522,0,0,1,70.5,13.8Zm4.89-4.271V6.376A4.627,4.627,0,0,0,72.6,2.1a2.105,2.105,0,0,0-4.21-.062A4.8,4.8,0,0,0,65.61,6.314V9.471A1.739,1.739,0,0,0,64,11.143a1.639,1.639,0,0,0,1.61,1.61H75.39a1.61,1.61,0,1,0,0-3.219Zm0,2.167H65.61a.557.557,0,0,1,0-1.114,1.1,1.1,0,0,0,1.114-1.052V6.376a3.714,3.714,0,0,1,2.724-3.529V2.662c0-.867.5-1.61,1.114-1.61s1.114.743,1.114,1.61v.186A3.714,3.714,0,0,1,74.4,6.376V9.533a1.1,1.1,0,0,0,1.114,1.052.555.555,0,0,1,.557.557c0,.31-.371.557-.681.557Z" transform="translate(-48 626)" fill="#fff"/>
  </g>
</svg>
