<svg xmlns="http://www.w3.org/2000/svg" width="14" height="14" viewBox="0 0 14 14">
  <g id="组_1121" data-name="组 1121" transform="translate(-10 -341)">
    <g id="组_1115" data-name="组 1115" transform="translate(0 10)">
      <path id="路径_425" data-name="路径 425" d="M7,0A7,7,0,1,1,0,7,7,7,0,0,1,7,0Z" transform="translate(10 331)" fill="#4da1ff"/>
      <path id="路径_424" data-name="路径 424" d="M159.846,157.485c-.889-.716-1.293-.437-1.725,0l-.038.038c-.072-.01-.341-.1-1.076-.822s-.817-1-.827-1.076l.034-.034c.447-.428.73-.831.01-1.735a1.127,1.127,0,0,0-.817-.509,1.294,1.294,0,0,0-.951.543c-.034.038-.072.072-.1.106a.94.94,0,0,0-.245.692,5.076,5.076,0,0,0,1.73,3.176,5.146,5.146,0,0,0,3.181,1.73h0a.94.94,0,0,0,.682-.235c.029-.029.062-.058.1-.086a1.339,1.339,0,0,0,.557-.961A1.168,1.168,0,0,0,159.846,157.485Z" transform="translate(-140.108 181.648)" fill="#fff"/>
    </g>
  </g>
</svg>
