<?xml version="1.0" standalone="no"?><!DOCTYPE svg PUBLIC "-//W3C//DTD SVG 1.1//EN" "http://www.w3.org/Graphics/SVG/1.1/DTD/svg11.dtd"><svg t="1534230340440" class="icon" style="" viewBox="0 0 1024 1024" version="1.1" xmlns="http://www.w3.org/2000/svg" p-id="3642" xmlns:xlink="http://www.w3.org/1999/xlink" width="50" height="50"><defs><style type="text/css"></style></defs><path d="M931.84 675.84c0 12.288-8.192 20.48-20.48 20.48s-20.48-8.192-20.48-20.48V419.84c0-34.816-26.624-61.44-61.44-61.44h-409.6c-34.816 0-61.44 26.624-61.44 61.44v409.6c0 34.816 26.624 61.44 61.44 61.44h409.6c34.816 0 61.44-26.624 61.44-61.44v-45.056c0-12.288 8.192-20.48 20.48-20.48s20.48 8.192 20.48 20.48v45.056c0 57.344-45.056 102.4-102.4 102.4h-409.6c-57.344 0-102.4-45.056-102.4-102.4v-409.6c0-57.344 45.056-102.4 102.4-102.4h409.6c57.344 0 102.4 45.056 102.4 102.4v256z m-225.28-454.656c0 12.288-8.192 20.48-20.48 20.48s-20.48-8.192-20.48-20.48V194.56c0-34.816-26.624-61.44-61.44-61.44h-409.6c-34.816 0-61.44 26.624-61.44 61.44v409.6c0 34.816 26.624 61.44 61.44 61.44h32.768c12.288 0 20.48 8.192 20.48 20.48s-8.192 20.48-20.48 20.48h-32.768c-57.344 0-102.4-45.056-102.4-102.4v-409.6c0-57.344 45.056-102.4 102.4-102.4h409.6c57.344 0 102.4 45.056 102.4 102.4v26.624z" p-id="3643" fill="#707070"></path></svg>