<svg xmlns="http://www.w3.org/2000/svg" width="24" height="24" viewBox="0 0 24 24">
  <g id="组_1030" data-name="组 1030" transform="translate(-649 -1244)">
    <rect id="矩形_701" data-name="矩形 701" width="24" height="24" transform="translate(649 1244)" fill="none"/>
    <path id="路径_373" data-name="路径 373" d="M91.78,76.082a.533.533,0,0,0-.53.53V79.88a.533.533,0,0,0,.53.53H106.72a.533.533,0,0,0,.53-.53V76.612a.53.53,0,1,0-1.061,0V79.35H92.311V76.612A.528.528,0,0,0,91.78,76.082ZM99.25,63.35a.533.533,0,0,0-.53.53V75.354l-3.388-3.268a.533.533,0,0,0-.736.77L98.882,77a.479.479,0,0,0,.068.043.713.713,0,0,0,.1.068.544.544,0,0,0,.4,0,.9.9,0,0,0,.094-.06A.4.4,0,0,0,99.626,77l4.287-4.141a.532.532,0,0,0-.744-.762l-3.38,3.268V63.88a.541.541,0,0,0-.539-.53Z" transform="translate(561.75 1183.65)" fill="#707070"/>
  </g>
</svg>
