<svg xmlns="http://www.w3.org/2000/svg" width="24" height="24" viewBox="0 0 24 24">
  <g id="组_1029" data-name="组 1029" transform="translate(-609 -1244)">
    <rect id="矩形_701" data-name="矩形 701" width="24" height="24" transform="translate(609 1244)" fill="none"/>
    <path id="路径_372" data-name="路径 372" d="M1.933,4.02h8.13A6.426,6.426,0,0,1,16.609,10.7c0,3.8-2.534,5.985-6.335,5.985H.56a.577.577,0,0,1,0-1.151h9.714c3.273,0,5.28-1.726,5.28-4.833a5.324,5.324,0,0,0-5.491-5.526H1.721L4.678,8.393a.591.591,0,0,1,0,.807.482.482,0,0,1-.739,0L.137,5.056a.591.591,0,0,1,0-.806L3.939.222a.482.482,0,0,1,.738,0,.591.591,0,0,1,0,.806L1.933,4.021Z" transform="translate(613.022 1247.95)" fill="#707070"/>
  </g>
</svg>
