<svg xmlns="http://www.w3.org/2000/svg" width="17.157" height="15.771" viewBox="0 0 17.157 15.771">
  <g id="组_1114" data-name="组 1114" transform="translate(-22.85 -757.214)">
    <path id="路径_419" data-name="路径 419" d="M3968.6,718.8v11.162h3.153l.746,3.31,3.014-3.31h8.944V718.8Z" transform="translate(-3945.097 39.064)" fill="none" stroke="#1a1311" stroke-linejoin="round" stroke-width="1.3"/>
    <path id="路径_422" data-name="路径 422" d="M79.545,91.729h0a4.272,4.272,0,0,0-3.414-1.75,4.1,4.1,0,0,0-3.361,1.75.768.768,0,0,1-.473.219.62.62,0,0,1-.63-.656.814.814,0,0,1,.105-.383,5.359,5.359,0,0,1,8.718,0,.814.814,0,0,1,.105.383.647.647,0,0,1-.578.656A.655.655,0,0,1,79.545,91.729Z" transform="translate(-44.702 674.835)"/>
  </g>
</svg>
