<svg xmlns="http://www.w3.org/2000/svg" width="80" height="79.999" viewBox="0 0 80 79.999">
  <g id="组_814" data-name="组 814" transform="translate(-221.506 -384.506)">
    <g id="组_813" data-name="组 813" transform="translate(221.506 384.506)">
      <path id="路径_192" data-name="路径 192" d="M-467.71-114.71a40.045,40.045,0,0,0-40,40,40.045,40.045,0,0,0,40,40,40.045,40.045,0,0,0,40-40A40.045,40.045,0,0,0-467.71-114.71Z" transform="translate(507.71 114.71)" fill="#c1deff"/>
    </g>
    <g id="组_812" data-name="组 812" transform="translate(221.506 384.506)">
      <path id="路径_190" data-name="路径 190" d="M-566.123-209.017a2.643,2.643,0,0,0-3.736,0l-10.881,10.881-10.881-10.881a2.643,2.643,0,0,0-3.736,0,2.643,2.643,0,0,0,0,3.736l8.239,8.239h-6.371a2.642,2.642,0,0,0-2.642,2.642,2.642,2.642,0,0,0,2.642,2.642h9.991v7.465h-9.991a2.642,2.642,0,0,0-2.642,2.642,2.642,2.642,0,0,0,2.642,2.642h9.991v9.679a2.642,2.642,0,0,0,2.642,2.642,2.642,2.642,0,0,0,2.642-2.642v-9.679h10.2a2.642,2.642,0,0,0,2.641-2.642,2.642,2.642,0,0,0-2.641-2.642h-10.2v-7.465h10.223a2.642,2.642,0,0,0,2.642-2.642,2.642,2.642,0,0,0-2.642-2.642h-6.371l8.239-8.239A2.643,2.643,0,0,0-566.123-209.017Z" transform="translate(620.74 228.239)" fill="#4da1ff"/>
      <path id="路径_191" data-name="路径 191" d="M-602.71-244.71a40.045,40.045,0,0,0-40,40,40.045,40.045,0,0,0,40,40,40.045,40.045,0,0,0,40-40A40.045,40.045,0,0,0-602.71-244.71Zm0,74.716a34.756,34.756,0,0,1-34.717-34.716,34.756,34.756,0,0,1,34.717-34.716,34.755,34.755,0,0,1,34.716,34.716A34.755,34.755,0,0,1-602.71-169.994Z" transform="translate(642.71 244.71)" fill="#4da1ff"/>
    </g>
  </g>
</svg>
