<svg xmlns="http://www.w3.org/2000/svg" width="80" height="79.999" viewBox="0 0 80 79.999">
  <g id="组_961" data-name="组 961" transform="translate(-148 -198)">
    <g id="组_814" data-name="组 814" transform="translate(-73.506 -186.506)">
      <g id="组_813" data-name="组 813" transform="translate(221.506 384.506)">
        <path id="路径_192" data-name="路径 192" d="M-467.71-114.71a40.045,40.045,0,0,0-40,40,40.045,40.045,0,0,0,40,40,40.045,40.045,0,0,0,40-40A40.045,40.045,0,0,0-467.71-114.71Z" transform="translate(507.71 114.71)" fill="none"/>
      </g>
      <g id="组_812" data-name="组 812" transform="translate(221.506 384.506)">
        <path id="路径_191" data-name="路径 191" d="M-602.71-244.71a40.045,40.045,0,0,0-40,40,40.045,40.045,0,0,0,40,40,40.045,40.045,0,0,0,40-40A40.045,40.045,0,0,0-602.71-244.71Zm0,74.716a34.756,34.756,0,0,1-34.717-34.716,34.756,34.756,0,0,1,34.717-34.716,34.755,34.755,0,0,1,34.716,34.716A34.755,34.755,0,0,1-602.71-169.994Z" transform="translate(642.71 244.71)" fill="#ff6464"/>
      </g>
    </g>
    <line id="直线_96" data-name="直线 96" x2="37" transform="translate(174.565 251.728) rotate(-45)" fill="none" stroke="#ff6464" stroke-linecap="round" stroke-width="5"/>
    <line id="直线_97" data-name="直线 97" x2="37" transform="translate(175.272 225.565) rotate(45)" fill="none" stroke="#ff6464" stroke-linecap="round" stroke-width="5"/>
  </g>
</svg>
