<svg xmlns="http://www.w3.org/2000/svg" width="80" height="79.999" viewBox="0 0 80 79.999">
  <g id="组_962" data-name="组 962" transform="translate(-148 -198)">
    <g id="组_814" data-name="组 814" transform="translate(-73.506 -186.506)">
      <g id="组_813" data-name="组 813" transform="translate(221.506 384.506)">
        <path id="路径_192" data-name="路径 192" d="M-467.71-114.71a40.045,40.045,0,0,0-40,40,40.045,40.045,0,0,0,40,40,40.045,40.045,0,0,0,40-40A40.045,40.045,0,0,0-467.71-114.71Z" transform="translate(507.71 114.71)" fill="#c1deff"/>
      </g>
      <g id="组_812" data-name="组 812" transform="translate(221.506 384.506)">
        <path id="路径_191" data-name="路径 191" d="M-602.71-244.71a40.045,40.045,0,0,0-40,40,40.045,40.045,0,0,0,40,40,40.045,40.045,0,0,0,40-40A40.045,40.045,0,0,0-602.71-244.71Zm0,74.716a34.756,34.756,0,0,1-34.717-34.716,34.756,34.756,0,0,1,34.717-34.716,34.755,34.755,0,0,1,34.716,34.716A34.755,34.755,0,0,1-602.71-169.994Z" transform="translate(642.71 244.71)" fill="#4da1ff"/>
      </g>
      <path id="路径_245" data-name="路径 245" d="M4539.052-587.164l13.655,13.655,29.761-25.559" transform="translate(-4297.494 1012.506)" fill="none" stroke="#4da1ff" stroke-linecap="round" stroke-width="5"/>
    </g>
  </g>
</svg>
