<svg id="图层_1" data-name="图层 1" xmlns="http://www.w3.org/2000/svg" viewBox="0 0 22.92 22.25"><defs><style>.cls-1{fill:#fff;}</style></defs><title>icon</title><path class="cls-1" d="M21.23,21.89H1.69a1,1,0,0,1-1-1V1.36a1,1,0,0,1,1-1H21.23a1,1,0,0,1,1,1V20.89A1,1,0,0,1,21.23,21.89Zm-18.54-2H20.23V2.36H2.69Z"/><rect class="cls-1" x="9.23" y="4.97" width="8.1" height="2"/><rect class="cls-1" x="9.23" y="10.12" width="8.1" height="2"/><rect class="cls-1" x="9.23" y="14.94" width="8.1" height="2"/><rect class="cls-1" x="5.25" y="4.97" width="1.95" height="2"/><rect class="cls-1" x="5.25" y="10.12" width="1.95" height="2"/><rect class="cls-1" x="5.25" y="14.94" width="1.95" height="2"/></svg>