<svg id="图层_1" data-name="图层 1" xmlns="http://www.w3.org/2000/svg" viewBox="0 0 22.92 22.25"><defs><style>.cls-1{fill:#fff;}</style></defs><title>icon</title><path class="cls-1" d="M20.18,16.29H5.52a1,1,0,0,1-1-.89L3.2,3.17h-3v-2H4.1a1,1,0,0,1,1,.89L6.41,14.29H20.18Z"/><path class="cls-1" d="M19.31,12.21l-13.73,0c-.62,0-.93-.52-.93-1.14L3.72,5.33c0-.62,0-1.17.71-1.17H21.93c.56,0,1,.39.73,1.12l-2.23,5.8C20.11,11.87,19.93,12.21,19.31,12.21Z"/><circle class="cls-1" cx="7.65" cy="19.18" r="1.59"/><circle class="cls-1" cx="16.83" cy="19.49" r="1.59"/></svg>