<svg xmlns="http://www.w3.org/2000/svg" width="24.608" height="15.344" viewBox="0 0 24.608 15.344">
  <g id="组_808" data-name="组 808" transform="translate(-541.289 -412)">
    <path id="路径_187" data-name="路径 187" d="M561.713,424.554a.7.7,0,0,0-.7.7.7.7,0,0,1-.7.7H543.381a.7.7,0,0,1-.7-.7V414.092a.7.7,0,0,1,.7-.7h16.937a.7.7,0,0,1,.7.7.7.7,0,0,0,1.395,0A2.1,2.1,0,0,0,560.318,412H543.381a2.1,2.1,0,0,0-2.092,2.092v11.159a2.1,2.1,0,0,0,2.092,2.092h16.937a2.1,2.1,0,0,0,2.092-2.092A.7.7,0,0,0,561.713,424.554Z" transform="translate(0 0)" fill="#1a1311"/>
    <path id="路径_188" data-name="路径 188" d="M577.262,437.26a.711.711,0,1,0,0,1.421h4.931a.711.711,0,1,0,0-1.421Z" transform="translate(-30.343 -21.737)" fill="#1a1311"/>
    <path id="路径_189" data-name="路径 189" d="M665.375,440.487h-2.79V437.7a.7.7,0,0,0-1.395,0v2.79H658.4a.7.7,0,0,0,0,1.395h2.79v2.79a.7.7,0,0,0,1.395,0v-2.79h2.79a.7.7,0,0,0,0-1.395Z" transform="translate(-100.175 -21.513)" fill="#1a1311"/>
  </g>
</svg>
