<svg xmlns="http://www.w3.org/2000/svg" width="36.763" height="37.345" viewBox="0 0 36.763 37.345">
  <g id="组_1131" data-name="组 1131" transform="translate(-4891.745 -4663.655)">
    <g id="椭圆_33" data-name="椭圆 33" transform="translate(4909 4674)" fill="none" stroke="#1a1311" stroke-width="1.5">
      <circle cx="3" cy="3" r="3" stroke="none"/>
      <circle cx="3" cy="3" r="2.25" fill="none"/>
    </g>
    <g id="椭圆_35" data-name="椭圆 35" transform="translate(4902 4684)" fill="#fff" stroke="#1a1311" stroke-width="1.5">
      <circle cx="1.5" cy="1.5" r="1.5" stroke="none"/>
      <circle cx="1.5" cy="1.5" r="0.75" fill="none"/>
    </g>
    <g id="椭圆_34" data-name="椭圆 34" transform="translate(4916 4688)" fill="#fff" stroke="#1a1311" stroke-width="1.5">
      <circle cx="1.5" cy="1.5" r="1.5" stroke="none"/>
      <circle cx="1.5" cy="1.5" r="0.75" fill="none"/>
    </g>
    <g id="组_1129" data-name="组 1129">
      <path id="路径_433" data-name="路径 433" d="M190.894,158.526a13.78,13.78,0,1,0-13.78-13.78A13.78,13.78,0,0,0,190.894,158.526Zm0-25.794a12.014,12.014,0,1,1-12.014,12.014A12.014,12.014,0,0,1,190.894,132.732ZM178.81,157.607a12.182,12.182,0,0,0,5.229-1.581,44.414,44.414,0,0,0,10.6-8.074c6.546-6.581,11.837-15.238,8.719-18.356-1.7-1.7-5.212-1.042-9.885,1.873l.936,1.493c4.178-2.606,6.881-2.942,7.7-2.12,1.484,1.484-1.122,8.233-8.745,15.847a42.666,42.666,0,0,1-10.132,7.747c-2.738,1.4-4.92,1.767-5.715.989s-.671-2.924,1.67-6.934l-1.528-.883c-2.482,4.267-2.977,7.491-1.387,9.081a3.427,3.427,0,0,0,2.535.919Z" transform="translate(4770.396 4489.337) rotate(17)" fill="#1a1311"/>
      <g id="组_1130" data-name="组 1130">
        <rect id="矩形_803" data-name="矩形 803" width="36" height="36" transform="translate(4892 4665)" fill="none"/>
      </g>
    </g>
  </g>
</svg>
