<svg xmlns="http://www.w3.org/2000/svg" width="20.833" height="16.328" viewBox="0 0 20.833 16.328">
  <g id="组_890" data-name="组 890" transform="translate(-1245.484 1438.967)">
    <g id="组_863" data-name="组 863" transform="translate(1260.437 -1436.525)">
      <path id="路径_206" data-name="路径 206" d="M1334.526-1409.636a4.033,4.033,0,0,1,1.185,2.861,4.033,4.033,0,0,1-1.185,2.86" transform="translate(-1334.526 1412.497)" fill="none" stroke="#666" stroke-linecap="round" stroke-linejoin="round" stroke-width="1.3"/>
      <path id="路径_207" data-name="路径 207" d="M1352.2-1427.315a8.066,8.066,0,0,1,2.37,5.722,8.066,8.066,0,0,1-2.37,5.721" transform="translate(-1349.344 1427.315)" fill="none" stroke="#666" stroke-linecap="round" stroke-linejoin="round" stroke-width="1.3"/>
    </g>
    <path id="路径_208" data-name="路径 208" d="M1250.568-1434.849h-3.625a.809.809,0,0,0-.809.809v6.473a.809.809,0,0,0,.809.809h3.625l5.793,3.345a.809.809,0,0,0,1.214-.7v-13.38a.809.809,0,0,0-1.214-.7Z" fill="none" stroke="#666" stroke-linecap="round" stroke-linejoin="round" stroke-width="1.3"/>
  </g>
</svg>
