<svg xmlns="http://www.w3.org/2000/svg" width="15" height="15" viewBox="0 0 15 15">
  <g id="组_389" data-name="组 389" transform="translate(-104 -590)">
    <g id="组_1026" data-name="组 1026">
      <rect id="矩形_295" data-name="矩形 295" width="15" height="15" transform="translate(104 590)" fill="#4da1ff"/>
    </g>
    <path id="路径_175" data-name="路径 175" d="M234.2,314.363a.558.558,0,0,1-.391-.158l-3.2-3.128a.534.534,0,0,1,0-.763.559.559,0,0,1,.781,0l2.809,2.746,5.869-5.74a.559.559,0,0,1,.781,0,.534.534,0,0,1,0,.764l-6.261,6.122a.559.559,0,0,1-.391.158Z" transform="translate(-124.452 287.84)" fill="#fff"/>
  </g>
</svg>
