<svg xmlns="http://www.w3.org/2000/svg" width="14.793" height="15.057" viewBox="0 0 14.793 15.057">
  <g id="组_934" data-name="组 934" transform="translate(-74 -176.808)">
    <rect id="矩形_649" data-name="矩形 649" width="14.793" height="14.793" transform="translate(74 177)" fill="none"/>
    <g id="组_783" data-name="组 783" transform="translate(74.74 177.458)">
      <g id="组_782" data-name="组 782" transform="translate(3.446 0)">
        <path id="路径_174" data-name="路径 174" d="M-268.267-729.186a4.588,4.588,0,0,1-4.587,4.587l-.142,0a4.557,4.557,0,0,1-2.326-.718,4.586,4.586,0,0,1-2.119-3.867,4.557,4.557,0,0,1,.587-2.246,4.584,4.584,0,0,1,4-2.341A4.587,4.587,0,0,1-268.267-729.186Z" transform="translate(277.442 733.773)" fill="none" stroke="#4da1ff" stroke-linecap="round" stroke-linejoin="round" stroke-width="1.3"/>
        <path id="路径_175" data-name="路径 175" d="M-194.323-621.288a4.576,4.576,0,0,1,1.549,3.437" transform="translate(201.949 631.608)" fill="none" stroke="#4da1ff" stroke-linecap="round" stroke-linejoin="round" stroke-width="1.3"/>
        <path id="路径_176" data-name="路径 176" d="M-277.442-629.242a4.587,4.587,0,0,1,4.587-4.587" transform="translate(277.442 642.998)" fill="none" stroke="#4da1ff" stroke-linecap="round" stroke-linejoin="round" stroke-width="1.3"/>
      </g>
      <path id="路径_177" data-name="路径 177" d="M-309.437-702.639a3.429,3.429,0,0,1-2.119.728A3.446,3.446,0,0,1-315-705.356a3.446,3.446,0,0,1,3.446-3.446,3.45,3.45,0,0,1,.587.05,4.556,4.556,0,0,0-.587,2.246A4.586,4.586,0,0,0-309.437-702.639Z" transform="translate(315.002 711.093)" fill="none" stroke="#4da1ff" stroke-linecap="round" stroke-linejoin="round" stroke-width="1.3"/>
      <path id="路径_178" data-name="路径 178" d="M-315-630.239a3.446,3.446,0,0,1,3.446-3.446,3.43,3.43,0,0,1,2.1.716" transform="translate(315.001 642.868)" fill="none" stroke="#4da1ff" stroke-linecap="round" stroke-linejoin="round" stroke-width="1.3"/>
    </g>
  </g>
</svg>
