<svg xmlns="http://www.w3.org/2000/svg" width="20.142" height="23.115" viewBox="0 0 20.142 23.115">
  <path id="路径_366" data-name="路径 366" d="M64.828,15.27a3.786,3.786,0,0,0-2.713,1.15l-4.853-2.929a4.27,4.27,0,0,0,.313-1.621,4.709,4.709,0,0,0-.417-1.883l4.905-3.347a3.78,3.78,0,0,0,2.818,1.2,3.946,3.946,0,0,0,3.914-3.922A3.992,3.992,0,0,0,64.828,0a3.946,3.946,0,0,0-3.914,3.922,3.523,3.523,0,0,0,.209,1.255L56.061,8.629a4.509,4.509,0,0,0-2.974-1.15,4.445,4.445,0,0,0,0,8.89,4.545,4.545,0,0,0,3.183-1.36l4.905,2.824a3.9,3.9,0,1,0,3.653-2.562Zm2.192,3.922A2.192,2.192,0,1,1,64.828,17,2.207,2.207,0,0,1,67.02,19.192ZM55.853,11.871a2.713,2.713,0,1,1-2.713-2.719A2.7,2.7,0,0,1,55.853,11.871Zm6.784-7.949a2.192,2.192,0,1,1,2.192,2.2A2.207,2.207,0,0,1,62.636,3.922Z" transform="translate(-48.652)" fill="#fff"/>
</svg>
