<svg id="组_1020" data-name="组 1020" xmlns="http://www.w3.org/2000/svg" width="18" height="18" viewBox="0 0 18 18">
  <path id="路径_367" data-name="路径 367" d="M9,9,0,9A9,9,0,1,0,9,0,9,9,0,0,0,0,9Z" transform="translate(0 0)" fill="#f4b364"/>
  <path id="路径_368" data-name="路径 368" d="M631.36,531.52m-.576,0a.576.576,0,1,0,.576-.576A.576.576,0,0,0,630.784,531.52Z" transform="translate(-619.696 -521.611)" fill="#fff"/>
  <path id="路径_369" data-name="路径 369" d="M235.288,228.491a.666.666,0,0,0-.693-.693h-8.622a.666.666,0,0,0-.693.693v6.237a.666.666,0,0,0,.693.693h8.685a.666.666,0,0,0,.693-.693v-2.4h-2.52a1.1,1.1,0,0,1-1.053-1.053,1.016,1.016,0,0,1,1.053-1.053h2.448v-1.728ZM229.24,227.1h4.653s-.459-1.944-1.656-1.728A6.306,6.306,0,0,0,229.24,227.1Z" transform="translate(-221.32 -221.39)" fill="#fff"/>
</svg>
