<svg xmlns="http://www.w3.org/2000/svg" width="11.75" height="13.428" viewBox="0 0 11.75 13.428">
  <path id="路径_379" data-name="路径 379" d="M69.875,12.477a1.605,1.605,0,0,1-1.287-.5H67.469a2.625,2.625,0,0,0,4.7,0H71.05A1.376,1.376,0,0,1,69.875,12.477Zm4.42-3.861V5.763A4.182,4.182,0,0,0,71.777,1.9a1.9,1.9,0,0,0-3.8-.056,4.335,4.335,0,0,0-2.518,3.861V8.56A1.572,1.572,0,0,0,64,10.071a1.481,1.481,0,0,0,1.455,1.455h8.84a1.455,1.455,0,1,0,0-2.909Zm0,1.958h-8.84a.5.5,0,0,1,0-1.007.993.993,0,0,0,1.007-.951V5.763a3.357,3.357,0,0,1,2.462-3.189V2.406c0-.783.448-1.455,1.007-1.455s1.007.671,1.007,1.455v.168A3.357,3.357,0,0,1,73.4,5.763V8.616a.993.993,0,0,0,1.007.951.5.5,0,0,1,.5.5c0,.28-.336.5-.615.5Z" transform="translate(-64)" fill="#eb0000"/>
</svg>
