<svg xmlns="http://www.w3.org/2000/svg" width="20" height="19.608" viewBox="0 0 20 19.608">
  <path id="路径_28" data-name="路径 28" d="M68.462,80.806h-.625a3.676,3.676,0,1,1,0-7.351h.625v7.351Zm-1.25-6.058a2.452,2.452,0,0,0,0,4.767V74.748Zm0,0,13.125,6.058h-.625V73.455h.625a3.676,3.676,0,1,1,0,7.351m.625-6.058v4.766a2.451,2.451,0,0,0,0-4.766m0,9.121V82.644a.588.588,0,0,0,.625-.613h1.251a1.817,1.817,0,0,1-1.876,1.838m-2.5-1.225h2.5v1.225h-2.5V82.644Zm0,0M76.915,85.1a1.838,1.838,0,1,1,1.875-1.838A1.86,1.86,0,0,1,76.915,85.1m0-2.45a.613.613,0,1,0,.625.613.62.62,0,0,0-.625-.613m4.047-10.416h-1.25a5.626,5.626,0,0,0-11.25,0h-1.25a6.876,6.876,0,0,1,13.75,0" transform="translate(-64.087 -65.492)" fill="#4da1ff"/>
</svg>
