<svg xmlns="http://www.w3.org/2000/svg" width="56" height="60" viewBox="0 0 56 60">
  <g id="组_305" data-name="组 305" transform="translate(-1306 -199)">
    <g id="组_304" data-name="组 304" transform="translate(267.427 989.816) rotate(-45)">
      <line id="直线_30" data-name="直线 30" x2="15.197" transform="translate(1283.5 240.219)" fill="none" stroke="#999" stroke-width="1.3"/>
      <line id="直线_31" data-name="直线 31" x2="15.197" transform="translate(1291.099 233) rotate(90)" fill="none" stroke="#999" stroke-width="1.3"/>
    </g>
    <path id="路径_347" data-name="路径 347" d="M104.842,100.96a12.388,12.388,0,0,1,0-24.768c7.107,0,12.071,5.092,12.071,12.384A12.244,12.244,0,0,1,104.842,100.96Zm0-23.464a11.083,11.083,0,1,0,10.8,11.08c0-6.524-4.441-11.08-10.8-11.08ZM92.6,98.774H64.727a3.869,3.869,0,0,1-3.814-3.913V44.873a3.869,3.869,0,0,1,3.814-3.913h41.718a3.869,3.869,0,0,1,3.814,3.913V72.112h-1.271V44.873a2.579,2.579,0,0,0-2.542-2.609H64.727a2.579,2.579,0,0,0-2.542,2.609V94.861a2.579,2.579,0,0,0,2.542,2.609H92.6ZM68.027,54.858H102.5v1.3H68.027Zm0,14.127H102.5v1.3H68.027Zm0,14.128H88.733v1.3H68.027Z" transform="translate(1245.087 158.04)" fill="#999"/>
  </g>
</svg>
