<svg xmlns="http://www.w3.org/2000/svg" width="18.77" height="18.768" viewBox="0 0 18.77 18.768">
  <g id="组_1113" data-name="组 1113" transform="translate(-64.425 -64.425)">
    <path id="路径_420" data-name="路径 420" d="M82.522,81.853H74.051L83,72.908a.669.669,0,0,0,0-.948l-7.337-7.339a.672.672,0,0,0-.95,0L64.622,74.711a.669.669,0,0,0,0,.948l6.192,6.192H65.1a.671.671,0,0,0,0,1.342H82.524a.67.67,0,1,0,0-1.34ZM66.045,75.185l9.14-9.14,6.389,6.389-9.142,9.14Z" fill="#1a1311"/>
    <path id="路径_421" data-name="路径 421" d="M246.729,244.255a.683.683,0,0,0-.726.61l-.451,5.242-5.458.47a.67.67,0,0,0,.057,1.338l.059,0,6.02-.518a.67.67,0,0,0,.61-.61l.5-5.8A.671.671,0,0,0,246.729,244.255Z" transform="translate(-171.387 -176.058)" fill="#1a1311"/>
  </g>
</svg>
