<svg xmlns="http://www.w3.org/2000/svg" width="17.958" height="19.34" viewBox="0 0 17.958 19.34">
  <path id="路径_415" data-name="路径 415" d="M111.886,72.288a6.907,6.907,0,0,0-13.814,0h.691a1.381,1.381,0,0,1,1.381,1.381v3.454A1.381,1.381,0,0,1,98.763,78.5H97.381A1.381,1.381,0,0,1,96,77.123V73.67a1.382,1.382,0,0,1,.712-1.209.692.692,0,0,1-.022-.173,8.289,8.289,0,0,1,16.577,0,.68.68,0,0,1-.021.173,1.381,1.381,0,0,1,.712,1.209v3.454a1.381,1.381,0,0,1-1.381,1.381h-.043a5.526,5.526,0,0,1-5.483,4.835.691.691,0,1,1,0-1.381,4.145,4.145,0,0,0,4.087-3.454,1.381,1.381,0,0,1-1.324-1.381V73.67a1.381,1.381,0,0,1,1.381-1.381Zm-14.5,1.381v3.454h1.381V73.67Zm13.814,0v3.454h1.381V73.67Z" transform="translate(-96 -64)"/>
</svg>
