<svg xmlns="http://www.w3.org/2000/svg" width="18" height="18" viewBox="0 0 18 18">
  <g id="银行卡" transform="translate(-64.769 -63.646)">
    <path id="路径_212" data-name="路径 212" d="M601.88,615.183h.808v.8h-.808Zm2,0h.808v.8h-.808Z" transform="translate(-526.302 -540.438)" fill="#c00"/>
    <path id="路径_213" data-name="路径 213" d="M73.769,63.646a9,9,0,1,0,9,9,9,9,0,0,0-9-9ZM79.346,76.1a.9.9,0,0,1-.762.834H69.026a.808.808,0,0,1-.686-.776l-.021-4.4H79.346V76.1Zm0-7.11v1.349l-11.028-.005.021-1.385a.742.742,0,0,1,.69-.607h9.524C79.357,68.428,79.346,68.994,79.346,68.994Z" fill="#c00"/>
    <path id="路径_214" data-name="路径 214" d="M651.254,615.183h.808v.8h-.808Z" transform="translate(-574.683 -540.438)" fill="#c00"/>
  </g>
</svg>
