<svg xmlns="http://www.w3.org/2000/svg" width="18" height="16.552" viewBox="0 0 18 16.552">
  <path id="微信支付" d="M6.862,48.823c-1.077.6-1.237-.336-1.237-.336l-1.35-3.138c-.52-1.491.45-.672.45-.672s.832.627,1.463,1.008a1.693,1.693,0,0,0,1.35.112l8.827-4.058A9.432,9.432,0,0,0,9,38.4c-4.971,0-9,3.512-9,7.845a7.513,7.513,0,0,0,3.412,6.148l-.375,2.146s-.183.626.45.336c.431-.2,1.531-.908,2.186-1.34A10.136,10.136,0,0,0,9,54.091c4.97,0,9-3.512,9-7.845a7,7,0,0,0-.941-3.492c-2.812,1.685-9.354,5.6-10.2,6.07Zm0,0" transform="translate(0 -38.4)" fill="#00c800"/>
</svg>
