<svg xmlns="http://www.w3.org/2000/svg" width="18" height="18" viewBox="0 0 18 18">
  <g id="组_876" data-name="组 876" transform="translate(-221.506 -384.506)">
    <g id="组_813" data-name="组 813" transform="translate(221.506 384.506)">
      <path id="路径_192" data-name="路径 192" d="M-498.71-114.71a9.01,9.01,0,0,0-9,9,9.01,9.01,0,0,0,9,9,9.01,9.01,0,0,0,9-9A9.01,9.01,0,0,0-498.71-114.71Z" transform="translate(507.71 114.71)" fill="#ffe7c4"/>
    </g>
    <g id="组_812" data-name="组 812" transform="translate(221.506 384.506)">
      <path id="路径_190" data-name="路径 190" d="M-589.378-209.616a.6.6,0,0,0-.841,0l-2.448,2.448-2.448-2.448a.6.6,0,0,0-.841,0,.6.6,0,0,0,0,.841l1.854,1.854h-1.433a.594.594,0,0,0-.594.594.594.594,0,0,0,.594.594h2.248v1.68h-2.248a.594.594,0,0,0-.594.594.594.594,0,0,0,.594.594h2.248v2.178a.594.594,0,0,0,.594.594.594.594,0,0,0,.594-.594v-2.178h2.294a.594.594,0,0,0,.594-.594.594.594,0,0,0-.594-.594H-592.1v-1.68h2.3a.594.594,0,0,0,.594-.594.594.594,0,0,0-.594-.594h-1.433l1.854-1.854A.6.6,0,0,0-589.378-209.616Z" transform="translate(601.667 213.941)" fill="#f90"/>
      <path id="路径_191" data-name="路径 191" d="M-633.71-244.71a9.01,9.01,0,0,0-9,9,9.01,9.01,0,0,0,9,9,9.01,9.01,0,0,0,9-9A9.01,9.01,0,0,0-633.71-244.71Zm0,16.811a7.82,7.82,0,0,1-7.811-7.811,7.82,7.82,0,0,1,7.811-7.811,7.82,7.82,0,0,1,7.811,7.811A7.82,7.82,0,0,1-633.71-227.9Z" transform="translate(642.71 244.71)" fill="#f90"/>
    </g>
  </g>
</svg>
