<svg xmlns="http://www.w3.org/2000/svg" width="18" height="18" viewBox="0 0 18 18">
  <path id="支付宝" d="M11.541,14.227S10.2,15.3,9.716,15.579a6.038,6.038,0,0,1-1.187.524,4.979,4.979,0,0,1-.942.215q-.4.044-.67.057a.146.146,0,0,1-.063.013h-.2a5.021,5.021,0,0,1-1.308-.164,3.31,3.31,0,0,1-1.068-.486,2.367,2.367,0,0,1-.72-.809A2.327,2.327,0,0,1,3.291,13.8a1.924,1.924,0,0,1,.3-1.011,2.682,2.682,0,0,1,.752-.771,3.567,3.567,0,0,1,1.024-.48A3.463,3.463,0,0,1,6.5,11.4a6.809,6.809,0,0,1,1.074.132,9.75,9.75,0,0,1,.992.259q.474.152.9.329t.8.341q.152.063.316.126t.341.126a7.3,7.3,0,0,0,.619-.916q.253-.449.417-.821t.253-.625q.088-.253.114-.354H6.841V9.388h2.59v-1.4H5.83V7.38h3.6V6.243a.207.207,0,0,1,.126-.183.872.872,0,0,1,.291-.095,2.19,2.19,0,0,1,.429-.038h.973V7.38h3.7v.606h-3.7v1.4h2.942l0-.013v.013h0a7.213,7.213,0,0,1-.3,1.188,9.151,9.151,0,0,1-.524,1.238,8.7,8.7,0,0,1-.916,1.428,24.957,24.957,0,0,0,5.96,1.875,9.012,9.012,0,1,0-.783,1.391,33.142,33.142,0,0,1-6.087-2.281Zm-7.075-.4c-.034,1.544,1.713,1.659,1.983,1.667a3.951,3.951,0,0,0,2.17-.642,12.454,12.454,0,0,0,1.508-1.222c.033-.03.067-.061.1-.095q-.366-.2-.72-.373a8.108,8.108,0,0,0-2.5-.867C5,12.084,4.476,13.353,4.466,13.823Z" transform="translate(-1.202 -2.422)" fill="#4da1ff"/>
</svg>
