<svg xmlns="http://www.w3.org/2000/svg" width="18" height="18" viewBox="0 0 18 18">
  <g id="组_974" data-name="组 974" transform="translate(-16 -327)">
    <g id="组_813" data-name="组 813" transform="translate(16 327)">
      <path id="路径_192" data-name="路径 192" d="M-498.71-114.71a9.01,9.01,0,0,0-9,9,9.01,9.01,0,0,0,9,9,9.01,9.01,0,0,0,9-9A9.01,9.01,0,0,0-498.71-114.71Z" transform="translate(507.71 114.71)" fill="#d3e8ff"/>
    </g>
    <path id="路径_191" data-name="路径 191" d="M-633.71-244.71a9.01,9.01,0,0,0-9,9,9.01,9.01,0,0,0,9,9,9.01,9.01,0,0,0,9-9A9.01,9.01,0,0,0-633.71-244.71Zm0,16.811a7.82,7.82,0,0,1-7.811-7.811,7.82,7.82,0,0,1,7.811-7.811,7.82,7.82,0,0,1,7.811,7.811A7.82,7.82,0,0,1-633.71-227.9Z" transform="translate(658.71 571.71)" fill="#4da1ff"/>
    <text id="提" transform="translate(29 339)" fill="#4da1ff" font-size="8" font-family="PingFang SC Medium, PingFang SC"><tspan x="-8" y="0">提</tspan></text>
  </g>
</svg>
