<?xml version="1.0" standalone="no"?><!DOCTYPE svg PUBLIC "-//W3C//DTD SVG 1.1//EN" "http://www.w3.org/Graphics/SVG/1.1/DTD/svg11.dtd"><svg t="1552649122407" class="icon" style="" viewBox="0 0 1024 1024" version="1.1" xmlns="http://www.w3.org/2000/svg" p-id="2634" xmlns:xlink="http://www.w3.org/1999/xlink" width="174" height="174"><defs><style type="text/css"></style></defs><path d="M170.666667 384v213.333333H85.248V384h85.333333z m0-42.666667H85.248C61.824 341.333333 42.666667 360.533333 42.666667 384v213.333333c0 23.466667 19.157333 42.666667 42.624 42.666667h85.333333c23.466667 0 42.666667-19.2 42.666667-42.666667V384a42.752 42.752 0 0 0-42.666667-42.666667zM938.666667 384v213.333333h-85.333334V384h85.333334z m0-42.666667h-85.333334c-23.466667 0-42.666667 19.157333-42.666666 42.624v213.290667c0 23.466667 19.2 42.666667 42.666666 42.666667h85.333334c23.466667 0 42.624-19.2 42.624-42.666667V384.042667C981.333333 360.533333 962.176 341.333333 938.709333 341.333333zM512 768c47.018667 0 85.333333 38.357333 85.333333 85.333333 0 47.061333-38.314667 85.376-85.333333 85.376-47.018667 0-85.333333-38.314667-85.333333-85.333333 0-47.018667 38.314667-85.333333 85.333333-85.333333z m0-42.666667a128 128 0 1 0 0 256 128 128 0 1 0 0-256z m-85.333333-384H341.333333v85.333334h85.333334V341.333333z m256 0h-85.333334v85.333334h85.333334V341.333333z m-23.722667 213.290667c-29.610667 50.773333-84.053333 85.333333-146.944 85.333333s-117.333333-34.56-146.944-85.333333H316.672a213.162667 213.162667 0 0 0 195.328 128 213.290667 213.290667 0 0 0 195.328-128h-48.384z m-508.586667-213.333333C203.264 192.512 345.173333 85.333333 512 85.333333c166.826667 0 308.736 107.093333 361.642667 256h45.44C864.725333 168.277333 703.018667 42.666667 512 42.666667S159.274667 168.234667 104.917333 341.333333h45.44z m705.109334 298.666666A385.536 385.536 0 0 1 640 830.890667v45.482666A427.733333 427.733333 0 0 0 902.826667 640h-47.36z" p-id="2635"></path></svg>