<svg xmlns="http://www.w3.org/2000/svg" width="20" height="20.15" viewBox="0 0 20 20.15">
  <g id="组_931" data-name="组 931" transform="translate(-192.5 -176.85)">
    <rect id="矩形_652" data-name="矩形 652" width="20" height="20" transform="translate(192.5 177)" fill="none"/>
    <path id="路径_186" data-name="路径 186" d="M-798.693-1463.577v-.019a1.633,1.633,0,0,1,.806-1.426l1.642-.949a9.383,9.383,0,0,0-2.42-4.236l-1.6.926a1.662,1.662,0,0,1-1.684-.026l-.032-.019a1.656,1.656,0,0,1-.829-1.425v-1.893a9.375,9.375,0,0,0-2.527-.344,9.389,9.389,0,0,0-2.351.3v1.75a1.794,1.794,0,0,1-.912,1.562l-.018.01a1.791,1.791,0,0,1-1.781-.008l-1.549-.895a9.378,9.378,0,0,0-2.461,4.213l1.534.886a1.8,1.8,0,0,1,.889,1.575v.021a1.8,1.8,0,0,1-.889,1.575l-1.534.886a9.378,9.378,0,0,0,2.461,4.213l1.549-.9a1.79,1.79,0,0,1,1.781-.008l.018.01a1.793,1.793,0,0,1,.912,1.562v1.751a9.4,9.4,0,0,0,2.351.3,9.375,9.375,0,0,0,2.527-.344v-1.893a1.656,1.656,0,0,1,.829-1.425l.032-.019a1.662,1.662,0,0,1,1.684-.026l1.6.926a9.383,9.383,0,0,0,2.42-4.236l-1.642-.948A1.633,1.633,0,0,1-798.693-1463.577Zm-6.648,3.314a3.309,3.309,0,0,1-1.509-.362,3.334,3.334,0,0,1-.841-.612,3.314,3.314,0,0,1-.974-2.35,3.324,3.324,0,0,1,3.324-3.324,3.312,3.312,0,0,1,1.441.328,3.339,3.339,0,0,1,.909.646,3.313,3.313,0,0,1,.974,2.35A3.324,3.324,0,0,1-805.341-1460.262Z" transform="translate(1007.912 1650.487)" fill="none" stroke="#1a1311" stroke-linecap="round" stroke-linejoin="round" stroke-width="1.3"/>
  </g>
</svg>
