<svg xmlns="http://www.w3.org/2000/svg" width="19.308" height="19.416" viewBox="0 0 19.308 19.416">
  <path id="路径_430" data-name="路径 430" d="M64.619,53.76a.606.606,0,0,0-.605.605v7.743a.606.606,0,0,0,.605.605h7.743a.606.606,0,0,0,.605-.605A8.358,8.358,0,0,0,64.619,53.76Zm.608,7.743V55A7.15,7.15,0,0,1,71.733,61.5Zm4.445,3.011a7.351,7.351,0,1,1-7.351-7.348h.605V55.956h-.605a8.56,8.56,0,1,0,8.561,8.559v-.605H69.672Z" transform="translate(-53.71 -53.71)" fill="#1a1311" stroke="#1a1311" stroke-linecap="round" stroke-linejoin="round" stroke-width="0.1"/>
</svg>
