<svg xmlns="http://www.w3.org/2000/svg" width="20.035" height="20" viewBox="0 0 20.035 20">
  <g id="组_941" data-name="组 941" transform="translate(-227.8 -173)">
    <path id="路径_256" data-name="路径 256" d="M0,0H20V20H0Z" transform="translate(227.8 173)" fill="none"/>
    <g id="组_926" data-name="组 926" transform="translate(228.8 176)">
      <path id="路径_216" data-name="路径 216" d="M16.955,148.7H12.424c-.252,0-.42.249-.42.581s.168.581.42.581h4.531c.252,0,.42-.249.42-.581s-.168-.581-.42-.581Zm0,2.907H12.424c-.252,0-.42.249-.42.581s.168.581.42.581h4.531c.252,0,.42-.249.42-.581s-.168-.581-.42-.581Zm0,2.907H13.179c-.252,0-.42.249-.42.581s.168.581.42.581h3.776c.252,0,.42-.249.42-.581s-.168-.581-.42-.581ZM8.4,153.107a2.668,2.668,0,0,0,1.007-2.16,2.815,2.815,0,0,0-2.853-2.824A2.823,2.823,0,0,0,4.7,153.107a4.671,4.671,0,0,0-2.434,2.741.564.564,0,0,0,.336.665.532.532,0,0,0,.671-.332,3.245,3.245,0,0,1,3.189-2.326,3.319,3.319,0,0,1,3.189,2.326.618.618,0,0,0,.5.415h.168a.564.564,0,0,0,.336-.665A3.756,3.756,0,0,0,8.4,153.107Zm-1.846-3.9a1.744,1.744,0,1,1,0,3.489,1.712,1.712,0,0,1-1.762-1.744A1.764,1.764,0,0,1,6.549,149.2Zm0,0" transform="translate(-0.648 -145.894)" fill="#1a1311"/>
      <rect id="矩形_661" data-name="矩形 661" width="18.385" height="13" fill="none" stroke="#1a1311" stroke-linecap="round" stroke-linejoin="round" stroke-width="1.3"/>
    </g>
  </g>
</svg>
