<svg xmlns="http://www.w3.org/2000/svg" width="20" height="20.442" viewBox="0 0 20 20.442">
  <g id="组_937" data-name="组 937" transform="translate(-111 -205.558)">
    <rect id="矩形_655" data-name="矩形 655" width="20" height="20" transform="translate(111 206)" fill="none"/>
    <path id="路径_215" data-name="路径 215" d="M88.251,2.781A12.43,12.43,0,0,1,80.761.154.626.626,0,0,0,80.291,0a.639.639,0,0,0-.434.237c-1.562,1.982-5.59,2.505-7.51,2.505h0a.628.628,0,0,0-.443.184.641.641,0,0,0-.186.45v7.279c0,3.132,4.751,9.475,8.635,9.475,4.068,0,8.531-6.49,8.531-9.246V3.416A.632.632,0,0,0,88.251,2.781Zm-.629,8.1c0,2.193-4.041,7.979-7.273,7.979-3.091,0-7.378-5.7-7.378-8.208V4c1.547-.072,5.376-.459,7.453-2.5a13.676,13.676,0,0,0,7.2,2.542v6.851ZM77.868,5.663a.623.623,0,0,0-.888-.016.638.638,0,0,0-.016.9l2.051,2.141H76.868a.634.634,0,0,0,0,1.268h2.8v1.175h-2.8a.634.634,0,0,0,0,1.267h2.8v2.491a.629.629,0,1,0,1.258,0V12.394h2.8a.634.634,0,0,0,0-1.267h-2.8V9.952h2.8a.634.634,0,0,0,0-1.268H81.581l2.05-2.141a.636.636,0,0,0-.015-.9.622.622,0,0,0-.888.016L80.3,8.2Z" transform="translate(40.909 205.558)" fill="#1a1311"/>
  </g>
</svg>
