<svg xmlns="http://www.w3.org/2000/svg" width="27.928" height="27.928" viewBox="0 0 27.928 27.928">
  <g id="组_968" data-name="组 968" transform="translate(-154.072 -218)">
    <path id="路径_333" data-name="路径 333" d="M0,0H21.278a6.65,6.65,0,0,1,6.65,6.65V27.928Z" transform="translate(154.072 218)" fill="#cecece"/>
    <path id="路径_175" data-name="路径 175" d="M234,313.983a.528.528,0,0,1-.37-.15l-3.03-2.963a.506.506,0,0,1,0-.723.529.529,0,0,1,.74,0l2.661,2.6,5.559-5.437a.529.529,0,0,1,.74,0,.506.506,0,0,1,0,.723l-5.93,5.8a.529.529,0,0,1-.37.15Z" transform="translate(-62.894 -83.779)" fill="#fff"/>
  </g>
</svg>
