<svg xmlns="http://www.w3.org/2000/svg" width="13" height="13.006" viewBox="0 0 13 13.006">
  <path id="路径_370" data-name="路径 370" d="M11.817,0H9.763a.591.591,0,1,0,0,1.183h1.462a.594.594,0,0,1,.591.591V3.25A.592.592,0,0,0,13,3.25V1.183A1.179,1.179,0,0,0,11.817,0ZM.591,3.841a.594.594,0,0,0,.591-.591V1.768a.594.594,0,0,1,.591-.591H3.237A.594.594,0,0,0,3.828.585.59.59,0,0,0,3.23,0H1.183A1.179,1.179,0,0,0,0,1.183V3.25a.594.594,0,0,0,.591.591Zm2.652,7.995H1.774a.594.594,0,0,1-.591-.592V9.776A.587.587,0,0,0,.6,9.191H.585A.587.587,0,0,0,0,9.776v2.047a1.183,1.183,0,0,0,1.183,1.183h2.06a.585.585,0,1,0,0-1.17Zm9.171-2.645H12.4a.587.587,0,0,0-.585.585v1.469a.594.594,0,0,1-.591.591H9.75a.585.585,0,0,0,0,1.17h2.06a1.183,1.183,0,0,0,1.183-1.183V9.782a.575.575,0,0,0-.578-.591ZM.591,7.1H12.408a.591.591,0,1,0,0-1.183H.591a.591.591,0,0,0,0,1.183Z" transform="translate(0 0)" fill="#4da1ff"/>
</svg>
