<svg xmlns="http://www.w3.org/2000/svg" width="12.63" height="15" viewBox="0 0 12.63 15">
  <path id="路径_146" data-name="路径 146" d="M499.056,419.29h-8.115a.574.574,0,0,0-.574.574v1.8h-2.794a.574.574,0,0,0-.574.574v11.476a.574.574,0,0,0,.574.574h8.115a.574.574,0,0,0,.574-.574v-1.8h2.794a.574.574,0,0,0,.574-.574V419.864A.574.574,0,0,0,499.056,419.29Zm-3.942,13.852h-6.967V422.814h6.967v10.328Zm3.368-2.377h-2.221V422.24a.574.574,0,0,0-.574-.574h-4.173v-1.229h6.967Z" transform="translate(-487 -419.29)" fill="#4da1ff"/>
</svg>
