<svg xmlns="http://www.w3.org/2000/svg" width="17.24" height="14.246" viewBox="0 0 17.24 14.246">
  <g id="组_700" data-name="组 700" transform="translate(-506.38 -110.526)">
    <path id="路径_133" data-name="路径 133" d="M522.209,112.474h-2.034v-.537a1.413,1.413,0,0,0-1.411-1.411h-7.527a1.413,1.413,0,0,0-1.411,1.411v.537h-2.034a1.413,1.413,0,0,0-1.411,1.411v7.527a1.413,1.413,0,0,0,1.411,1.411h2.034v.537a1.413,1.413,0,0,0,1.411,1.411h7.527a1.413,1.413,0,0,0,1.411-1.411v-.537h2.034a1.413,1.413,0,0,0,1.411-1.411v-7.527A1.413,1.413,0,0,0,522.209,112.474Zm-11.443-.537a.471.471,0,0,1,.47-.47h7.527a.471.471,0,0,1,.47.47v.537h-8.468Zm8.468,11.424a.471.471,0,0,1-.47.47h-7.527a.471.471,0,0,1-.47-.47V118.59a.471.471,0,0,1,.47-.47h7.527a.471.471,0,0,1,.47.47v4.771Zm3.445-1.948a.471.471,0,0,1-.47.47h-2.034V118.59a1.413,1.413,0,0,0-1.411-1.411h-7.527a1.413,1.413,0,0,0-1.411,1.411v3.293h-2.034a.471.471,0,0,1-.47-.47v-7.527a.471.471,0,0,1,.47-.47h14.417a.471.471,0,0,1,.47.47Z" transform="translate(0 0)" fill="#4da1ff"/>
    <path id="路径_134" data-name="路径 134" d="M579.109,201.913h-3.316a.47.47,0,1,0,0,.941h3.316a.47.47,0,1,0,0-.941Z" transform="translate(-62.457 -82.789)" fill="#4da1ff"/>
    <path id="路径_135" data-name="路径 135" d="M579.109,223.026h-3.316a.47.47,0,1,0,0,.941h3.316a.47.47,0,1,0,0-.941Z" transform="translate(-62.457 -101.916)" fill="#4da1ff"/>
    <circle id="椭圆_10" data-name="椭圆 10" cx="0.47" cy="0.47" r="0.47" transform="translate(518.763 114.146)" fill="#4da1ff"/>
  </g>
</svg>
