<svg xmlns="http://www.w3.org/2000/svg" width="18.855" height="16.093" viewBox="0 0 18.855 16.093">
  <g id="组_1110" data-name="组 1110" transform="translate(-23.333 -610.144)">
    <path id="路径_416" data-name="路径 416" d="M67.24,100.9a.619.619,0,1,0,0,1.238h5.037a.619.619,0,1,0,0-1.238Zm4.407,4.334a.625.625,0,0,0-.629-.619H67.24a.619.619,0,1,0,0,1.238h3.778a.625.625,0,0,0,.629-.619Zm7.56,1.155a3.694,3.694,0,0,0,1.569-3.012,3.778,3.778,0,0,0-7.555,0,3.694,3.694,0,0,0,1.57,3.012,6.173,6.173,0,0,0-3.459,5.036.63.63,0,0,0,1.259,0A4.886,4.886,0,0,1,77,107.086a4.886,4.886,0,0,1,4.407,4.334.63.63,0,0,0,1.259,0A6.173,6.173,0,0,0,79.207,106.383ZM77,105.848a2.477,2.477,0,1,1,2.518-2.476A2.5,2.5,0,0,1,77,105.848Z" transform="translate(-40.477 513.955)"/>
    <path id="路径_417" data-name="路径 417" d="M3985.578,623.612v-2.818h-16.595v14.793h5.278" transform="translate(-3945 -10)" fill="none" stroke="#000" stroke-linecap="round" stroke-linejoin="round" stroke-width="1.3"/>
  </g>
</svg>
