<svg xmlns="http://www.w3.org/2000/svg" width="15.908" height="18.8" viewBox="0 0 15.908 18.8">
  <path id="路径_418" data-name="路径 418" d="M112.589,50.184a.723.723,0,1,1,.383,1.394c-1.187.327-1.812.743-1.812.9,0,.564,2.936,1.446,6.508,1.446s6.508-.882,6.508-1.446c0-.148-.58-.548-1.7-.871a.723.723,0,0,1,.4-1.39c1.7.49,2.749,1.21,2.749,2.26,0,1.831-3.537,2.892-7.954,2.892s-7.954-1.061-7.954-2.892c0-1.074,1.1-1.806,2.875-2.3Zm5.079,3.018c-1.854,0-6.508-6.955-6.508-10.123a6.508,6.508,0,1,1,13.015,0C124.176,46.247,119.522,53.2,117.668,53.2Zm0-1.446c.9,0,5.062-6.213,5.062-8.677a5.062,5.062,0,0,0-10.123,0C112.606,45.543,116.764,51.756,117.668,51.756Zm0-5.785a2.892,2.892,0,1,1,2.892-2.892,2.892,2.892,0,0,1-2.892,2.892Zm0-1.446a1.446,1.446,0,1,0-1.446-1.446A1.446,1.446,0,0,0,117.668,44.525Z" transform="translate(-109.714 -36.571)" fill="#1a1311"/>
</svg>
