<svg xmlns="http://www.w3.org/2000/svg" width="35.201" height="27.247" viewBox="0 0 35.201 27.247">
  <path id="路径_434" data-name="路径 434" d="M161.253,228.865h-22.27a3.193,3.193,0,0,0-3.183,3.183v14.315a3.193,3.193,0,0,0,3.183,3.183h22.27a3.193,3.193,0,0,0,3.183-3.183v-14.32A3.189,3.189,0,0,0,161.253,228.865Zm-22.27,1.589h22.27a1.681,1.681,0,0,1,1.035.4l-11.053,11.058a1.542,1.542,0,0,1-2.227,0l-11.053-11.058A1.669,1.669,0,0,1,138.983,230.455Zm-1.589,2.069,6.682,6.682-6.682,6.678Zm23.859,15.429h-22.27a1.681,1.681,0,0,1-1.035-.4l7.237-7.237,2.7,2.7a3.135,3.135,0,0,0,2.227.955,3.409,3.409,0,0,0,2.227-.876l2.7-2.7,7.237,7.237A2.229,2.229,0,0,1,161.253,247.953Zm1.589-2.069-6.678-6.682,6.682-6.682v13.365Zm4.772-23.384H145.348a3.193,3.193,0,0,0-3.183,3.183v.8a.8.8,0,0,0,1.594,0v-.8a1.594,1.594,0,0,1,1.589-1.589h22.27a1.594,1.594,0,0,1,1.589,1.589V240a1.594,1.594,0,0,1-1.589,1.589h-.8a.8.8,0,0,0,0,1.594h.8A3.193,3.193,0,0,0,170.8,240V225.683A3.2,3.2,0,0,0,167.614,222.5Zm0,0" transform="translate(-135.7 -222.4)" fill="#1a1311" stroke="#1a1311" stroke-width="0.2"/>
</svg>
