<svg xmlns="http://www.w3.org/2000/svg" width="28" height="28" viewBox="0 0 28 28">
  <g id="组_905" data-name="组 905" transform="translate(-3196 -1844)">
    <rect id="矩形_620" data-name="矩形 620" width="28" height="28" transform="translate(3196 1844)" fill="none"/>
    <g id="组_14" data-name="组 14" transform="translate(3023 1105)">
      <g id="组_4" data-name="组 4" transform="translate(225.342 253)">
        <g id="组_3" data-name="组 3">
          <path id="路径_4" data-name="路径 4" d="M-28.994,496.669a6.669,6.669,0,0,1-6.669,6.669c-.069,0-.139,0-.207,0a6.612,6.612,0,0,1-3.381-1.043,6.664,6.664,0,0,1-3.081-5.622,6.628,6.628,0,0,1,.853-3.265,6.666,6.666,0,0,1,5.816-3.4A6.669,6.669,0,0,1-28.994,496.669Z" fill="none" stroke="#1a1311" stroke-linecap="round" stroke-linejoin="round" stroke-width="1"/>
          <path id="路径_5" data-name="路径 5" d="M-31.246,505a6.655,6.655,0,0,1,2.252,5" fill="none" stroke="#1a1311" stroke-linecap="round" stroke-linejoin="round" stroke-width="1"/>
          <path id="路径_6" data-name="路径 6" d="M-42.332,510a6.669,6.669,0,0,1,6.669-6.669" fill="none" stroke="#1a1311" stroke-linecap="round" stroke-linejoin="round" stroke-width="1"/>
        </g>
        <path id="路径_7" data-name="路径 7" d="M-39.251,502.291a4.98,4.98,0,0,1-3.081,1.059,5.01,5.01,0,0,1-5.01-5.009,5.01,5.01,0,0,1,5.01-5.01,4.992,4.992,0,0,1,.853.073,6.628,6.628,0,0,0-.853,3.265A6.664,6.664,0,0,0-39.251,502.291Z" fill="none" stroke="#1a1311" stroke-linecap="round" stroke-linejoin="round" stroke-width="1"/>
        <path id="路径_8" data-name="路径 8" d="M-47.342,508.36a5.01,5.01,0,0,1,5.01-5.01,4.989,4.989,0,0,1,3.058,1.042" fill="none" stroke="#1a1311" stroke-linecap="round" stroke-linejoin="round" stroke-width="1"/>
      </g>
    </g>
  </g>
</svg>
