<svg xmlns="http://www.w3.org/2000/svg" width="15.96" height="13" viewBox="0 0 15.96 13">
  <g id="组_723" data-name="组 723" transform="translate(-2.578 -20.879)">
    <path id="路径_149" data-name="路径 149" d="M89.8,76.716c0-2.259-2.261-4.1-4.8-4.1-2.688,0-4.8,1.841-4.8,4.1s2.117,4.1,4.8,4.1a7.134,7.134,0,0,0,1.7-.283l1.549.848-.426-1.411A4.281,4.281,0,0,0,89.8,76.716Zm-6.284-.627a.64.64,0,1,1,.64-.64A.64.64,0,0,1,83.513,76.089Zm3.108,0a.64.64,0,1,1,.64-.64A.64.64,0,0,1,86.621,76.084Z" transform="translate(-71.259 -47.5)" fill="#fff"/>
    <path id="路径_150" data-name="路径 150" d="M13.383,24.811a4.705,4.705,0,0,1,.544.034c-.49-2.275-2.923-3.966-5.7-3.966-3.105,0-5.649,2.117-5.649,4.8A4.633,4.633,0,0,0,4.839,29.5l-.565,1.7,1.974-.99a9.711,9.711,0,0,0,1.979.283c.178,0,.354-.008.528-.022a4.206,4.206,0,0,1-.174-1.184A4.627,4.627,0,0,1,13.383,24.811ZM10.275,23.22a.768.768,0,1,1-.768.768A.768.768,0,0,1,10.275,23.22ZM6.33,24.755a.768.768,0,1,1,.768-.768A.768.768,0,0,1,6.33,24.755Z" fill="#fff"/>
  </g>
</svg>
