<svg xmlns="http://www.w3.org/2000/svg" width="20" height="20" viewBox="0 0 20 20">
  <g id="组_833" data-name="组 833" transform="translate(-265 -276)">
    <circle id="椭圆_17" data-name="椭圆 17" cx="10" cy="10" r="10" transform="translate(265 276)" fill="#fff"/>
    <g id="组_828" data-name="组 828" transform="translate(267.408 278.408)">
      <path id="路径_194" data-name="路径 194" d="M7.507,0V2.358A3.761,3.761,0,0,1,4.684,6,3.782,3.782,0,0,1,2.823,6,3.761,3.761,0,0,1,0,2.358V0H.931V2.358a2.823,2.823,0,1,0,5.645,0V0Z" transform="translate(4.322 5.642) rotate(45)" fill="#4da1ff"/>
      <path id="路径_195" data-name="路径 195" d="M7.507,3.753V6.117H6.576V3.753a2.823,2.823,0,0,0-5.645,0V6.117H0V3.753a3.753,3.753,0,1,1,7.507,0Z" transform="translate(9.964 0) rotate(45)" fill="#4da1ff"/>
      <g id="组_827" data-name="组 827" transform="translate(4.672 4.017) rotate(45)">
        <rect id="矩形_587" data-name="矩形 587" width="4.189" height="0.931" transform="translate(0)" fill="#4da1ff"/>
        <rect id="矩形_588" data-name="矩形 588" width="4.189" height="0.931" transform="translate(5.12 0)" fill="#4da1ff"/>
      </g>
    </g>
  </g>
</svg>
