<svg xmlns="http://www.w3.org/2000/svg" width="32.931" height="29.753" viewBox="0 0 32.931 29.753">
  <path id="路径_429" data-name="路径 429" d="M101.872,141.51a8.478,8.478,0,1,0-8.138-.032,12.346,12.346,0,0,0-6.138,4.305,14.954,14.954,0,0,0-3.1,8.8,1,1,0,0,0,2,0,13.351,13.351,0,0,1,2.724-7.749,10.6,10.6,0,0,1,8.621-4.146c7.793,0,11.414,7.111,11.414,11.895a1,1,0,0,0,2,0C111.183,149.992,108.183,143.487,101.872,141.51Zm-4.069-.8a6.57,6.57,0,1,1,6.483-6.569A6.518,6.518,0,0,1,97.8,140.712Zm17.725,4.528a11.814,11.814,0,0,0-5.483-4.337c1.69-1.18,3.9-3.38,3.552-6.633-.483-4.943-5.311-6.314-5.517-6.378a.987.987,0,0,0-1.207.606.911.911,0,0,0,.655,1.148,5.743,5.743,0,0,1,4.1,4.783c.414,3.827-4.034,5.772-4.241,5.868a.892.892,0,0,0,.172,1.722c.035,0,4.276,1.021,6.241,4.146a11.373,11.373,0,0,1,1.621,5.581.935.935,0,0,0,.965.925h.035a.962.962,0,0,0,1-.893,13.181,13.181,0,0,0-1.9-6.537Z" transform="translate(-84.493 -125.756)"/>
</svg>
