<svg id="组_916" data-name="组 916" xmlns="http://www.w3.org/2000/svg" width="20" height="20" viewBox="0 0 20 20">
  <path id="路径_221" data-name="路径 221" d="M184.682,377.355l2.786-7.918,2.909,7.918Zm-5.839,0,2.786-7.918,2.909,7.918Zm16.662-1.8-.113.451h-1.871l-.2-.451h2.179m.123-.636H193.1l-.185-.474h2.8m.051-.647h-3.094l-.185-.485h3.33m0-.624h-3.567l-.164-.474h3.742m-.062-.647h-3.947l-.164-.474h4.071m-.093-.636h-4.2l-.2-.474h4.307" transform="translate(-175.824 -362.804)" fill="#e41e26"/>
  <path id="路径_222" data-name="路径 222" d="M9.966.04h.408l.438.04L11.22.1l.388.07.408.07L12.4.33l.388.12.388.11.179.07L13.55.7l.368.16.358.16.338.18.338.18.348.21.319.23.319.23.3.23.3.25.3.28.279.28.279.28.249.3.119.16.109.16.249.32.209.32.209.32.2.34.159.36.189.35.139.36.139.39.139.37H15.242L12.6.939,9.856,7.9,6.969,1.009,1.892,14.166l2.31,2.9H15.959l2.15-3.147-.209-.48h1.394l-.139.37-.159.34-.159.34-.159.32-.209.34-.179.32-.229.3-.209.3-.229.3-.249.3-.249.26-.279.28-.279.25-.279.26-.3.23-.3.23-.3.21-.319.21-.319.18-.338.19-.338.16-.338.14-.368.14-.339.14-.368.11-.388.09-.368.09-.388.07-.179.02-.209.02-.388.04-.388.02H9.438l-.508-.05-.508-.06-.508-.09-.478-.12-.458-.11-.458-.16-.458-.18-.428-.21-.438-.21-.209-.14-.209-.11-.408-.26-.388-.28-.388-.3-.179-.16-.159-.16-.179-.16-.159-.16-.339-.34-.319-.36-.129-.19-.139-.21-.3-.39-.119-.19-.139-.21-.109-.21-.119-.23-.229-.41-.209-.46-.159-.44-.159-.48-.139-.46-.07-.26-.04-.23-.04-.26-.05-.25-.07-.48L.02,10.5,0,10.25V9.99l.02-.5.02-.509.07-.5L.2,7.972l.109-.48.139-.46.159-.46.159-.46.209-.44.229-.44.119-.21.109-.21.259-.41.3-.39.279-.39.159-.18.159-.16.159-.18.179-.16.338-.34.338-.32.209-.14.179-.14.388-.3.209-.12.209-.14.209-.12.209-.11.438-.23.428-.21.458-.19L7,.45,7.457.31,7.706.24,7.935.2,8.183.16,8.442.11,8.95.04,9.458.02,9.707,0h.259Z" transform="translate(0)" fill="#e41e26"/>
</svg>
