<svg xmlns="http://www.w3.org/2000/svg" width="19.148" height="20" viewBox="0 0 19.148 20">
  <g id="组_892" data-name="组 892" transform="translate(-21.798 0)">
    <path id="路径_225" data-name="路径 225" d="M38.674,58.4l-5.758-5.747a3.651,3.651,0,0,0-3.138-1.036A9.545,9.545,0,1,0,40.87,61.372a.38.38,0,0,0-.144-.315A.9.9,0,0,0,40.271,61H36.579a1.775,1.775,0,0,0-.459.051,1.128,1.128,0,0,0-.169.108l-4.5,4.5a.19.19,0,0,1-.265,0l-4.523-4.525a.188.188,0,0,1,0-.265l4.523-4.526a.186.186,0,0,1,.265,0l4.15,4.152a1.3,1.3,0,0,0,.419.246c.191.051.47-.142.47-.142l2.182-2.2Z" transform="translate(0 -50.58)" fill="#005bab"/>
    <path id="路径_226" data-name="路径 226" d="M464.9,4.822l-3.052-3.038A6.289,6.289,0,0,0,454.5.76s1.674-.9,3.816,1.353l5.042,5.065,1.488-1.472a1.245,1.245,0,0,0,.221-.427c.04-.19-.165-.456-.165-.456Z" transform="translate(-424.123 0)" fill="#005bab"/>
  </g>
</svg>
