<svg xmlns="http://www.w3.org/2000/svg" width="55.094" height="55.094" viewBox="0 0 55.094 55.094">
  <g id="组_757" data-name="组 757" transform="translate(-510.289 -663.289)">
    <path id="路径_153" data-name="路径 153" d="M577.535,698.743a1.819,1.819,0,0,0-2.572,0l-7.493,7.493-7.493-7.493a1.819,1.819,0,0,0-2.572,2.572l5.674,5.674h-4.388a1.819,1.819,0,0,0,0,3.639h6.881v5.141h-6.881a1.819,1.819,0,1,0,0,3.638h6.881v6.666a1.819,1.819,0,0,0,3.638,0v-6.666h7.022a1.819,1.819,0,1,0,0-3.638h-7.022v-5.141h7.04a1.819,1.819,0,0,0,0-3.639H571.86l5.674-5.674A1.819,1.819,0,0,0,577.535,698.743Z" transform="translate(-29.633 -22.216)" fill="#4da1ff"/>
    <path id="路径_154" data-name="路径 154" d="M537.836,663.289a27.547,27.547,0,1,0,27.547,27.547A27.578,27.578,0,0,0,537.836,663.289Zm0,51.455a23.909,23.909,0,1,1,23.908-23.909A23.936,23.936,0,0,1,537.836,714.745Z" transform="translate(0 0)" fill="#4da1ff"/>
  </g>
</svg>
